PathFileType	4	(X/Y/Z)	C:/Users/opensim2020/Desktop/walking_exp_matlab/subject03_walking12_straight_01.trc	
DataRate	CameraRate	NumFrames	NumMarkers	Units	OrigDataRate	OrigDataStartFrame	OrigNumFrames	
100.00	100.00	6	48	mm	100.00	713	211	
Frame#	Time	LFHD			RFHD			LBHD			RBHD			C7			T10			CLAV			STRN			RBAK			LSHO			LUPA			LELB			LFRM			LWRA			LWRB			LFIN			RSHO			RUPA			RELB			RFRM			RWRA			RWRB			RFIN			LASI			RASI			LPSI			RPSI			LTHI			LKNE			LTIB			LANK			LHEE			LTOE			RTHI			RKNE			RTIB			RANK			RHEE			RTOE			*39			*40			*41			*42			*43			*44			*45			*46			*47			
		X1	Y1	Z1	X2	Y2	Z2	X3	Y3	Z3	X4	Y4	Z4	X5	Y5	Z5	X6	Y6	Z6	X7	Y7	Z7	X8	Y8	Z8	X9	Y9	Z9	X10	Y10	Z10	X11	Y11	Z11	X12	Y12	Z12	X13	Y13	Z13	X14	Y14	Z14	X15	Y15	Z15	X16	Y16	Z16	X17	Y17	Z17	X18	Y18	Z18	X19	Y19	Z19	X20	Y20	Z20	X21	Y21	Z21	X22	Y22	Z22	X23	Y23	Z23	X24	Y24	Z24	X25	Y25	Z25	X26	Y26	Z26	X27	Y27	Z27	X28	Y28	Z28	X29	Y29	Z29	X30	Y30	Z30	X31	Y31	Z31	X32	Y32	Z32	X33	Y33	Z33	X34	Y34	Z34	X35	Y35	Z35	X36	Y36	Z36	X37	Y37	Z37	X38	Y38	Z38	X39	Y39	Z39	X40	Y40	Z40	X41	Y41	Z41	X42	Y42	Z42	X43	Y43	Z43	X44	Y44	Z44	X45	Y45	Z45	X46	Y46	Z46	X47	Y47	Z47	X48	Y48	Z48	

159	1.580	-1080.70007	558.84430	1598.25281	-949.62042	538.07782	1606.66382	-1092.12305	439.74948	1535.91870	-962.69720	424.42581	1544.25549	-1025.73633	415.32425	1384.22571	-1022.88855	392.15103	1072.06165	-1018.59753	540.76874	1313.46948	-1019.35620	591.20508	1150.05603	-926.65387	368.63791	1209.44104	-1177.99548	497.57193	1346.18555	-1247.00452	458.61722	1150.47144	-1262.23853	439.78342	1029.19849	-1270.01379	428.61340	898.87561	-1246.76062	409.44275	778.00348	-1297.76563	388.97473	793.98822	-1288.20447	358.59576	711.39850	-861.27234	487.49707	1338.85193	-782.91632	534.88806	1126.97168	-767.85101	581.87433	1025.92029	-766.99847	654.53595	910.66541	-801.10101	726.79565	844.71075	-763.64008	697.71271	820.58472	-763.62518	757.86304	782.16168	-1129.80774	569.77771	917.15588	-893.55908	543.77881	905.95709	-1101.96948	401.68201	932.39294	-952.35559	388.32883	938.92035	-1188.45459	598.14020	626.34052	-1141.50439	660.66132	467.64157	-1146.65234	667.89685	269.27121	-1115.24353	711.69647	63.79617	-1080.02185	673.20013	29.06293	-1081.20959	861.12280	37.49021	-863.35675	432.78201	621.55530	-897.09113	400.28348	443.99048	-897.88806	270.45541	295.24240	-946.74634	137.58070	124.36366	-996.95557	84.17311	117.82311	-967.77338	247.01610	29.75183	-1046.52344	461.26913	1649.22400																								 
160	1.590	-1080.61548	573.36523	1598.98071	-949.59723	552.04840	1606.97229	-1092.80542	454.27332	1536.92236	-963.41675	438.38138	1544.82117	-1026.96338	429.61737	1384.78125	-1023.23376	407.18390	1072.28796	-1019.38184	554.99713	1314.10632	-1020.04767	605.82660	1150.91394	-928.14099	382.81558	1209.18079	-1178.91028	512.52625	1346.54932	-1248.10730	473.03305	1150.95935	-1263.27539	453.01419	1029.91626	-1270.94507	440.28989	899.70044	-1247.59534	419.02319	779.13306	-1299.00891	399.69806	795.16888	-1288.69263	366.05313	713.44177	-861.93073	501.39240	1339.20105	-783.68140	547.26898	1126.56445	-768.64734	593.62427	1025.13184	-767.75793	665.22211	909.12683	-801.60486	736.85858	842.35724	-764.35120	707.48383	818.65906	-764.13959	767.21332	779.44360	-1130.46863	585.26898	918.66394	-894.64819	560.09216	905.35626	-1102.33765	417.18448	934.19434	-952.33362	404.48004	938.97791	-1187.89185	613.28516	628.61481	-1142.45715	675.33740	469.41806	-1147.61487	678.46259	270.26563	-1114.79883	716.31494	63.83221	-1080.16675	675.41846	30.78908	-1083.98682	866.06104	35.58176	-864.06757	449.92221	620.52832	-896.68866	418.13065	442.78479	-897.57831	283.55051	298.12183	-946.25269	145.42522	131.96577	-996.88385	92.42089	128.19460	-967.87714	248.18480	29.73095	-1048.32239	475.47812	1646.16321																								 
161	1.600	-1080.46692	587.98462	1600.11035	-949.46539	566.12872	1607.65283	-1093.45325	468.83884	1538.24536	-964.10590	452.34210	1545.74133	-1028.05591	443.93085	1385.84412	-1023.77307	422.12680	1072.96265	-1020.15088	569.18024	1315.18762	-1020.82043	620.42755	1152.20459	-929.57202	397.10104	1209.94397	-1179.80164	527.49127	1347.31873	-1249.13037	487.71512	1151.79102	-1264.18103	466.51492	1030.93860	-1271.71655	452.72308	900.76263	-1248.45679	429.85617	780.55859	-1300.12573	411.51981	796.52435	-1289.22632	375.16986	715.64502	-862.60327	515.47675	1339.84924	-784.49841	559.65527	1126.58777	-769.36499	605.11157	1024.54272	-768.49677	675.17108	907.54065	-801.76343	746.73987	840.36469	-765.07239	716.46082	816.63232	-764.72626	775.64075	776.42523	-1130.91858	600.57440	920.79938	-895.77008	576.20551	905.17639	-1102.50635	432.44141	936.43958	-952.23688	420.58820	939.25256	-1187.45532	627.59833	630.67969	-1143.17773	690.63983	471.14722	-1148.38110	688.66943	271.59225	-1113.87000	717.80927	64.35170	-1080.03357	676.59424	31.32910	-1084.82507	868.10754	34.29122	-864.62524	467.90115	619.50195	-895.94818	437.79211	441.54129	-897.35559	298.44571	301.22256	-946.13995	154.96269	140.23846	-997.54028	103.16085	139.65282	-968.14880	249.72717	29.75530	-1046.96252	490.42923	1651.00720																								 
162	1.610	-1080.22705	602.61621	1601.59216	-949.32886	580.21399	1608.67163	-1094.03223	483.42075	1540.01892	-964.73914	466.32196	1546.99976	-1028.94592	458.13174	1387.17578	-1024.36121	436.87027	1074.12158	-1020.86462	583.26489	1316.61169	-1021.47882	634.74982	1153.79919	-930.63171	411.13635	1210.91882	-1180.63403	542.41382	1348.50476	-1250.11621	502.71896	1152.97583	-1264.91003	480.95825	1032.12231	-1272.35779	466.11038	902.13513	-1248.88062	441.81949	782.04999	-1301.01038	424.46326	798.03571	-1289.88306	385.93643	717.92877	-863.36438	529.64148	1340.85925	-785.36163	571.94275	1126.94775	-770.16296	616.38287	1024.28235	-769.23779	684.84192	906.19464	-802.10486	755.65485	838.18500	-765.83405	724.71228	814.60101	-765.43195	782.95624	773.20056	-1131.45337	615.61871	923.23669	-897.34290	592.60687	905.79663	-1102.47656	447.54340	938.84680	-951.80212	435.88281	940.13660	-1187.93689	641.57776	632.91986	-1142.77991	705.65173	473.21478	-1149.93604	698.48431	272.97614	-1113.50244	718.47015	64.60376	-1080.15271	676.58136	31.42320	-1082.42517	868.75964	33.52287	-865.05695	486.79221	618.58588	-894.89063	459.36987	440.25803	-897.14703	315.26993	304.44229	-946.43896	167.17746	148.93835	-998.80316	116.79962	151.79240	-968.67230	251.61403	29.84732	-1046.98267	505.04303	1652.38501																								 
163	1.620	-1079.87402	617.28802	1603.26929	-949.06909	594.36334	1609.86145	-1094.51941	497.99100	1542.11511	-965.34381	480.32715	1548.56860	-1029.82996	472.35843	1388.70837	-1024.66077	451.15179	1075.64209	-1021.59210	597.35962	1318.29285	-1022.09906	649.13672	1155.53870	-931.43542	425.11694	1212.34070	-1181.35815	557.22443	1350.03455	-1251.02380	517.98322	1154.45837	-1265.63879	495.81598	1033.64246	-1272.80750	480.38492	903.67102	-1249.48438	454.97794	783.91565	-1301.80640	438.52054	799.71918	-1290.13574	397.95239	719.74805	-864.13873	543.80481	1342.23608	-786.28174	584.28998	1127.70178	-770.96570	627.47211	1024.38354	-769.95959	693.93707	905.10571	-802.76996	763.61700	835.77875	-766.55322	732.21063	812.71033	-766.42126	789.56519	769.96844	-1132.10193	630.36755	925.88757	-898.67645	608.14783	906.74969	-1102.23096	462.14954	941.23956	-951.48309	451.18463	941.16913	-1188.49109	655.68951	635.35565	-1142.50085	719.51166	474.85623	-1150.69946	707.18713	274.14120	-1113.28455	719.30176	64.68060	-1080.30701	677.01300	31.70394	-1082.09802	869.46655	32.82644	-865.46606	506.35040	617.71790	-893.68848	482.65097	438.88864	-896.69745	334.36685	307.87158	-947.02289	181.60031	157.26222	-1000.41699	133.56442	163.92760	-969.37177	254.13358	30.16948	-1046.90723	519.78955	1654.11438																								 
164	1.630	-1079.49023	632.06470	1604.95752	-948.66687	608.47314	1611.06384	-1094.96277	512.46393	1544.41431	-965.81616	494.23038	1550.36304	-1030.69873	486.49908	1390.21655	-1025.06946	465.24927	1077.23450	-1022.18799	611.40497	1320.02295	-1022.64343	663.35083	1157.31726	-931.92279	439.09204	1213.95825	-1181.92383	572.01526	1351.84717	-1251.82007	533.46710	1156.20862	-1266.16077	511.32370	1035.31787	-1273.12683	495.53375	905.42163	-1249.80396	469.41071	785.82538	-1302.44861	453.76208	801.47577	-1291.25049	412.49649	722.29529	-864.91119	557.88446	1343.88159	-787.23218	596.55792	1128.77771	-771.86841	638.42645	1024.83191	-770.79901	702.58618	904.19879	-803.59393	770.88263	833.37531	-767.11053	738.91522	811.02930	-767.48248	795.28882	766.62567	-1132.83667	644.78052	928.54803	-900.15948	623.57831	908.30548	-1101.85278	476.56815	943.38550	-951.45813	466.05414	942.09686	-1189.02124	669.85596	637.49579	-1142.82654	731.52856	475.65720	-1151.09167	714.31616	274.78296	-1113.63599	719.83453	65.29365	-1080.54565	677.17670	31.69777	-1082.34180	869.81964	32.35277	-865.74066	526.40662	616.71661	-892.81439	507.14532	437.48697	-896.26233	355.46158	310.80838	-947.03241	199.18736	164.56076	-1001.66150	153.15530	175.68491	-970.52704	256.30945	30.12476	-1045.77966	533.88220	1655.70679																								 
